PathFileType	4	(X/Y/Z)	s10c0403.trc
DataRate	CameraRate	NumFrames	NumMarkers	Units	OrigDataRate	OrigDataStartFrame	OrigNumFrames
200	200	4	49	mm	200	1500	2000
Frame#	Time	racr			lacr			c7			jug			rlel			rdr			llel			ldr			s2			lic			ric			lasi			rasi			rpsi			lpsi			rgt			lgt			rth1			rth2			rth3			rth4			rlfc			rmfc			rsh1			rsh2			rsh3			rsh4			rlmal			rmmal			rcal			rtoe			rmt5			lth1			lth2			lth4			lth3			llfc			lmfc			llmal			lcal			lmt5			lsh1			lsh2			lsh3			lsh4			ltoe			SBIKE			LBIKE			RBIKE			
		X1	Y1	Z1	X2	Y2	Z2	X3	Y3	Z3	X4	Y4	Z4	X5	Y5	Z5	X6	Y6	Z6	X7	Y7	Z7	X8	Y8	Z8	X9	Y9	Z9	X10	Y10	Z10	X11	Y11	Z11	X12	Y12	Z12	X13	Y13	Z13	X14	Y14	Z14	X15	Y15	Z15	X16	Y16	Z16	X17	Y17	Z17	X18	Y18	Z18	X19	Y19	Z19	X20	Y20	Z20	X21	Y21	Z21	X22	Y22	Z22	X23	Y23	Z23	X24	Y24	Z24	X25	Y25	Z25	X26	Y26	Z26	X27	Y27	Z27	X28	Y28	Z28	X29	Y29	Z29	X30	Y30	Z30	X31	Y31	Z31	X32	Y32	Z32	X33	Y33	Z33	X34	Y34	Z34	X35	Y35	Z35	X36	Y36	Z36	X37	Y37	Z37	X38	Y38	Z38	X39	Y39	Z39	X40	Y40	Z40	X41	Y41	Z41	X42	Y42	Z42	X43	Y43	Z43	X44	Y44	Z44	X45	Y45	Z45	X46	Y46	Z46	X47	Y47	Z47	X48	Y48	Z48	X49	Y49	Z49	
1500	7.5000	686.805780	1348.283802	-78.129352	643.297368	1362.615857	-355.659679	634.807139	1369.876472	-218.258420	647.252990	1218.485999	-211.358719	573.119365	1102.459405	41.951256	618.592999	909.211634	-42.479995	555.027425	1112.269076	-489.452415	625.420128	904.863183	-440.156688	112.571485	1141.371780	-268.049649	307.583686	1125.550460	-373.467741	273.113812	1134.021991	-108.451192	309.130590	1040.502093	-348.371810	261.767793	1065.239984	-106.518856	151.473712	1196.576038	-206.939712	180.638948	1196.473241	-317.183159	147.841879	1058.025006	-63.916144	185.712081	1006.999394	-441.449858	252.738372	964.101525	-36.164541	340.359774	950.879547	-43.745290	406.478054	897.872418	-40.335843	353.445180	984.866189	-52.236000	511.022156	855.078159	-55.761787	512.433665	835.046177	-182.255396	426.177981	779.168397	-28.054507	382.420810	702.130188	-38.409472	308.002060	658.452803	-42.513106	405.350914	682.978538	-62.418067	228.217583	575.193166	-58.191681	255.321514	579.889524	-136.552237	170.697490	579.838841	-103.298142	369.903469	440.002597	-108.981029	288.980680	458.926841	-44.965553	212.693047	884.224891	-449.101198	242.274199	805.681041	-428.301558	277.102546	812.131450	-416.234346	226.925284	718.981246	-416.114326	236.178511	613.719243	-399.456817	229.132812	607.422602	-281.321382	6.563958	315.996644	-387.954940	-49.414644	319.698984	-342.157817	61.635957	180.696718	-400.076330	141.538718	530.932344	-426.770010	120.399003	447.458195	-410.959870	57.311695	384.724222	-402.939839	148.405313	435.036577	-387.910169	140.831422	165.815940	-347.667606	-217.559397	831.495466	-214.326519	-103.944655	80.645250	-418.447208	-103.950074	80.655490	-18.367308	
1501	7.5050	688.360540	1346.345907	-78.257475	643.992348	1362.511759	-355.571272	636.130098	1369.656478	-218.265849	646.884032	1217.630957	-211.734983	572.718926	1101.923157	42.112025	618.468172	909.175191	-42.521147	555.452492	1112.832409	-489.657414	625.547205	904.846249	-440.046740	114.568481	1146.288037	-272.129066	306.164374	1129.170279	-373.722956	273.393264	1136.133059	-107.308199	308.783461	1043.665303	-349.044373	261.363977	1066.587350	-106.098189	151.688107	1199.206400	-205.279612	180.437446	1199.007345	-315.426034	148.547705	1060.748458	-62.272226	185.671208	1009.726001	-440.485034	251.798566	963.872692	-35.297239	339.229514	949.541176	-43.425940	404.556692	895.504872	-40.768879	352.702621	983.375539	-51.677968	508.751059	850.962187	-56.377394	508.633750	832.502847	-183.125167	425.413436	774.339384	-28.916614	382.808836	696.443693	-38.756613	309.092888	651.620042	-42.334141	405.871497	677.614931	-62.978980	231.061426	565.915331	-57.578848	257.722815	571.742993	-135.933986	173.076273	568.683897	-102.379737	377.177482	436.103659	-108.905818	295.971457	452.025689	-44.430432	214.490911	886.625074	-448.178677	246.007115	808.795046	-427.433200	280.634357	816.024060	-415.293295	232.849202	721.708015	-415.948169	244.362559	616.450714	-399.527604	237.823367	609.524483	-281.515102	6.361340	325.496808	-387.802792	-49.341711	331.501216	-341.687213	55.165632	187.513023	-399.752890	146.545289	536.515491	-426.586465	123.331007	453.578173	-410.856522	58.636050	392.428275	-402.401361	151.255711	440.366752	-388.046889	133.404998	168.488421	-347.421668	-217.638699	831.319977	-214.112795	-103.938894	80.649245	-418.415959	-103.902360	80.699627	-18.297812	
1502	7.5100	689.697726	1344.538153	-78.499824	644.975411	1362.356176	-355.632230	637.465856	1369.566931	-218.288347	646.458023	1216.754745	-212.009371	572.320154	1101.457654	41.937571	618.413608	909.190450	-42.461623	556.067841	1113.181354	-489.754232	625.641436	904.802720	-439.871988	114.598386	1149.031050	-270.990225	305.368502	1133.579789	-376.229351	273.574219	1137.975642	-106.459009	308.515484	1046.872051	-350.046933	261.238662	1067.999531	-105.798033	151.848376	1202.376734	-203.047314	180.394052	1201.472807	-313.483013	149.281250	1062.961400	-60.513165	185.368914	1012.518538	-439.437220	250.899943	963.404464	-34.434956	338.019587	947.643200	-42.998928	402.427425	892.474035	-41.209310	352.056378	981.266189	-51.135398	506.238533	846.126500	-57.246401	504.382264	828.981172	-183.859942	424.186361	768.754273	-29.678059	382.597519	690.033622	-39.144717	309.659615	644.090237	-42.063551	405.942166	671.456866	-63.409338	233.638991	556.252239	-56.571244	259.952913	562.842016	-135.074667	175.201531	556.874838	-101.441600	383.810431	431.618428	-108.886230	302.104918	444.535849	-44.114537	216.171766	888.939835	-447.247407	250.047749	812.027935	-426.568964	284.275981	820.310688	-414.241893	239.631373	724.609433	-415.714101	253.092225	619.154925	-399.333669	246.943475	611.702784	-281.529277	7.015305	335.076010	-387.839348	-48.481909	343.240919	-341.255740	49.115763	194.644806	-399.413843	152.446176	542.243644	-426.446648	127.095066	459.869154	-410.957078	60.786275	400.479339	-402.299473	154.711010	445.762007	-388.168659	126.224287	171.497472	-347.257593	-217.599292	831.340126	-214.031084	-103.891601	80.674984	-418.384570	-103.870471	80.704268	-18.257289	
1503	7.5150	690.820273	1342.892210	-78.878461	646.133125	1362.089039	-355.845384	638.814249	1369.528724	-218.525909	645.941715	1216.071390	-212.446692	571.876126	1101.068549	41.480398	618.917881	909.057948	-42.222157	556.810697	1113.440341	-489.927441	625.667141	904.764524	-439.591116	112.168347	1148.710144	-261.481132	303.628466	1137.064877	-376.671152	273.819784	1139.910165	-104.851156	307.981466	1049.977281	-351.154136	261.574304	1069.494410	-105.281384	152.523759	1204.736529	-200.970804	180.366652	1203.781498	-311.471848	150.154235	1064.799302	-59.083929	184.924002	1015.297279	-438.409852	249.966933	962.588317	-33.479885	336.675039	945.239012	-42.627222	400.115506	888.793531	-41.394783	351.411518	978.708053	-50.570872	503.342233	840.105792	-58.123243	499.267666	824.553300	-184.855159	422.208522	762.787485	-30.269229	381.912494	683.020462	-39.374537	309.858578	635.840445	-41.560424	405.296392	664.710939	-63.632611	235.838507	545.659603	-55.695097	261.655405	553.398757	-134.448323	177.089512	544.423594	-100.494785	389.954191	426.569808	-108.828902	307.949500	436.208001	-43.816680	217.850804	891.251567	-446.248996	254.951131	815.885866	-426.581901	288.226365	824.883488	-413.355740	246.902060	727.658011	-415.498042	262.342223	621.965561	-399.027604	256.437180	613.995498	-281.433730	8.331467	344.673257	-388.110877	-46.708816	355.328564	-341.206780	43.284049	201.805093	-399.034747	158.923283	547.899324	-426.354364	131.484123	466.233746	-411.006884	63.608438	408.688526	-402.471621	158.735699	451.388021	-388.304907	119.318079	174.999966	-347.077036	-217.584947	831.363615	-213.954987	-103.880546	80.680830	-418.369214	-103.834528	80.716860	-18.218994	
